<svg xmlns="http://www.w3.org/2000/svg" viewBox="0 0 1040 760" font-family="-apple-system,Segoe UI,Roboto,Helvetica,Arial,sans-serif">
<defs>
  <radialGradient id="bg" cx="50%" cy="40%" r="75%">
    <stop offset="0%" stop-color="#1a2742"/>
    <stop offset="100%" stop-color="#0d1526"/>
  </radialGradient>
  <radialGradient id="hub" cx="50%" cy="38%" r="70%">
    <stop offset="0%" stop-color="#24355a"/>
    <stop offset="100%" stop-color="#0b1322"/>
  </radialGradient>
  <linearGradient id="ring" x1="0" y1="0" x2="1" y2="1">
    <stop offset="0%" stop-color="#5b8def"/>
    <stop offset="100%" stop-color="#26bf9a"/>
  </linearGradient>
  <filter id="ds" x="-20%" y="-20%" width="140%" height="140%">
    <feDropShadow dx="0" dy="3" stdDeviation="4" flood-color="#000" flood-opacity="0.28"/>
  </filter>
  <marker id="arw" markerWidth="9" markerHeight="9" refX="7.5" refY="4.5" orient="auto">
    <path d="M0,0 L9,4.5 L0,9 Z" fill="#7f8db0"/>
  </marker>
</defs>
<rect x="0" y="0" width="1040" height="760" rx="22" fill="url(#bg)"/>
<text x="520" y="52" text-anchor="middle" fill="#ffffff" font-size="27" font-weight="700">The Eleven Governance Domains</text>
<text x="520" y="80" text-anchor="middle" fill="#9fb0d0" font-size="15">All domains converge on a single objective &#8212; production trust</text>
<line x1="520.0" y1="154.0" x2="520.0" y2="297.0" stroke="#6b7894" stroke-width="2" stroke-opacity="0.55" marker-end="url(#arw)"/>
<line x1="688.7" y1="196.5" x2="582.1" y2="320.1" stroke="#6b7894" stroke-width="2" stroke-opacity="0.55" marker-end="url(#arw)"/>
<line x1="763.5" y1="309.2" x2="609.9" y2="361.4" stroke="#6b7894" stroke-width="2" stroke-opacity="0.55" marker-end="url(#arw)"/>
<line x1="792.3" y1="421.1" x2="614.5" y2="402.1" stroke="#6b7894" stroke-width="2" stroke-opacity="0.55" marker-end="url(#arw)"/>
<line x1="745.6" y1="537.5" x2="599.8" y2="443.5" stroke="#6b7894" stroke-width="2" stroke-opacity="0.55" marker-end="url(#arw)"/>
<line x1="609.6" y1="619.1" x2="554.9" y2="480.4" stroke="#6b7894" stroke-width="2" stroke-opacity="0.55" marker-end="url(#arw)"/>
<line x1="430.4" y1="619.1" x2="485.1" y2="480.4" stroke="#6b7894" stroke-width="2" stroke-opacity="0.55" marker-end="url(#arw)"/>
<line x1="294.4" y1="537.5" x2="440.2" y2="443.5" stroke="#6b7894" stroke-width="2" stroke-opacity="0.55" marker-end="url(#arw)"/>
<line x1="247.7" y1="421.1" x2="425.5" y2="402.1" stroke="#6b7894" stroke-width="2" stroke-opacity="0.55" marker-end="url(#arw)"/>
<line x1="276.5" y1="309.2" x2="430.1" y2="361.4" stroke="#6b7894" stroke-width="2" stroke-opacity="0.55" marker-end="url(#arw)"/>
<line x1="351.3" y1="196.5" x2="457.9" y2="320.1" stroke="#6b7894" stroke-width="2" stroke-opacity="0.55" marker-end="url(#arw)"/>
<circle cx="520" cy="392" r="98" fill="none" stroke="url(#ring)" stroke-width="3" stroke-opacity="0.9"/>
<circle cx="520" cy="392" r="92" fill="url(#hub)" filter="url(#ds)"/>
<text x="520" y="386" text-anchor="middle" fill="#ffffff" font-size="34" font-weight="800" letter-spacing="1">ASPS</text>
<text x="520" y="414" text-anchor="middle" fill="#8fa6d6" font-size="15" font-weight="600">Production Trust</text>
<rect x="436.0" y="94.0" width="168" height="60" rx="13" fill="#dbe9ff" stroke="#5b8def" stroke-width="2" filter="url(#ds)"/>
<text x="520.0" y="120.0" text-anchor="middle" fill="#16233a" font-size="16.5" font-weight="700">Intent</text>
<text x="520.0" y="140.0" text-anchor="middle" fill="#16233a" font-size="16.5" font-weight="700">Governance</text>
<rect x="630.6" y="136.5" width="168" height="60" rx="13" fill="#e0f2ff" stroke="#3aa0e0" stroke-width="2" filter="url(#ds)"/>
<text x="714.6" y="162.5" text-anchor="middle" fill="#16233a" font-size="16.5" font-weight="700">Context</text>
<text x="714.6" y="182.5" text-anchor="middle" fill="#16233a" font-size="16.5" font-weight="700">Integrity</text>
<rect x="763.5" y="250.7" width="168" height="60" rx="13" fill="#dcf7e6" stroke="#2fb56e" stroke-width="2" filter="url(#ds)"/>
<text x="847.5" y="276.7" text-anchor="middle" fill="#16233a" font-size="16.5" font-weight="700">Agent</text>
<text x="847.5" y="296.7" text-anchor="middle" fill="#16233a" font-size="16.5" font-weight="700">Engineering</text>
<rect x="792.3" y="400.1" width="168" height="60" rx="13" fill="#fdeecb" stroke="#dca636" stroke-width="2" filter="url(#ds)"/>
<text x="876.3" y="426.1" text-anchor="middle" fill="#16233a" font-size="16.5" font-weight="700">Verification</text>
<text x="876.3" y="446.1" text-anchor="middle" fill="#16233a" font-size="16.5" font-weight="700">Factory</text>
<rect x="708.1" y="537.5" width="168" height="60" rx="13" fill="#fce0ef" stroke="#df5fa0" stroke-width="2" filter="url(#ds)"/>
<text x="792.1" y="563.5" text-anchor="middle" fill="#16233a" font-size="16.5" font-weight="700">Evidence</text>
<text x="792.1" y="583.5" text-anchor="middle" fill="#16233a" font-size="16.5" font-weight="700">Ledger</text>
<rect x="537.4" y="619.1" width="168" height="60" rx="13" fill="#d9f7ec" stroke="#26bf9a" stroke-width="2" filter="url(#ds)"/>
<text x="621.4" y="645.1" text-anchor="middle" fill="#16233a" font-size="16.5" font-weight="700">Runtime</text>
<text x="621.4" y="665.1" text-anchor="middle" fill="#16233a" font-size="16.5" font-weight="700">Truth</text>
<rect x="334.6" y="619.1" width="168" height="60" rx="13" fill="#ffe1e1" stroke="#e85b5b" stroke-width="2" filter="url(#ds)"/>
<text x="418.6" y="655.1" text-anchor="middle" fill="#16233a" font-size="16.5" font-weight="700">Cybersecurity</text>
<rect x="163.9" y="537.5" width="168" height="60" rx="13" fill="#eae6ff" stroke="#8b7fe0" stroke-width="2" filter="url(#ds)"/>
<text x="247.9" y="573.5" text-anchor="middle" fill="#16233a" font-size="16.5" font-weight="700">Compliance</text>
<rect x="79.7" y="400.1" width="168" height="60" rx="13" fill="#ffe2ea" stroke="#e8617f" stroke-width="2" filter="url(#ds)"/>
<text x="163.7" y="426.1" text-anchor="middle" fill="#16233a" font-size="16.5" font-weight="700">Legal</text>
<text x="163.7" y="446.1" text-anchor="middle" fill="#16233a" font-size="16.5" font-weight="700">Governance</text>
<rect x="108.5" y="250.7" width="168" height="60" rx="13" fill="#e2e8f5" stroke="#7088b0" stroke-width="2" filter="url(#ds)"/>
<text x="192.5" y="276.7" text-anchor="middle" fill="#16233a" font-size="16.5" font-weight="700">Economics</text>
<text x="192.5" y="296.7" text-anchor="middle" fill="#16233a" font-size="16.5" font-weight="700">CTQOST-R</text>
<rect x="241.4" y="136.5" width="168" height="60" rx="13" fill="#fdf2cf" stroke="#d6b13e" stroke-width="2" filter="url(#ds)"/>
<text x="325.4" y="172.5" text-anchor="middle" fill="#16233a" font-size="16.5" font-weight="700">Reversibility</text>
</svg>